# xmcd
#
# Track frame offsets:
#	150
#	19818
#	36790
#	52219
#	69869
#	84530
#	100461
#	119707
#	136109
#	154315
#	174461
#	193784
#	219058
#
# Disc length: 4704 seconds
#
# Revision: 4
# Processed by: cddbd v1.5.2PL0 Copyright (c) Steve Scherf et al.
# Submitted via: audiograbber 1.83.01
#
DISCID=b5125e0d
DTITLE=Cherish - Unappreciated
DYEAR=2006
DGENRE=R&B
TTITLE0=That Boi
TTITLE1=Do It To It (Feat. Sean Paul of YoungBloodz)
TTITLE2=Chevy
TTITLE3=Unappreciated
TTITLE4=Taken
TTITLE5=Stop Calling Me
TTITLE6=Oooh
TTITLE7=Chick Like Me (Feat. Rasheeda)
TTITLE8=Whenever
TTITLE9=Show And Tell
TTITLE10=Fool 4 You
TTITLE11=Moment In Time
TTITLE12=Data
EXTD=
EXTT0=
EXTT1=
EXTT2=
EXTT3=
EXTT4=
EXTT5=
EXTT6=
EXTT7=
EXTT8=
EXTT9=
EXTT10=
EXTT11=
EXTT12=
PLAYORDER=
